<svg width="17" height="17" viewBox="0 0 17 17" fill="none" xmlns="http://www.w3.org/2000/svg">
<path d="M12.4961 1.83301V3.16634M4.49609 1.83301V3.16634" stroke="#ADADAD" stroke-opacity="0.94" stroke-linecap="round" stroke-linejoin="round"/>
<path d="M8.49571 9.1665H8.50169M8.49571 11.8332H8.50169M11.1594 9.1665H11.1654M5.83203 9.1665H5.83801M5.83203 11.8332H5.83801" stroke="#ADADAD" stroke-opacity="0.94" stroke-width="1.33333" stroke-linecap="round" stroke-linejoin="round"/>
<path d="M2.83203 5.83301H14.1654" stroke="#ADADAD" stroke-opacity="0.94" stroke-linecap="round" stroke-linejoin="round"/>
<path d="M2.16406 8.66167C2.16406 5.7568 2.16406 4.30437 2.99881 3.40194C3.83355 2.49951 5.17706 2.49951 7.86406 2.49951H9.13073C11.8177 2.49951 13.1612 2.49951 13.996 3.40194C14.8307 4.30437 14.8307 5.7568 14.8307 8.66167V9.00402C14.8307 11.9089 14.8307 13.3613 13.996 14.2638C13.1612 15.1662 11.8177 15.1662 9.13073 15.1662H7.86406C5.17706 15.1662 3.83355 15.1662 2.99881 14.2638C2.16406 13.3613 2.16406 11.9089 2.16406 9.00402V8.66167Z" stroke="#ADADAD" stroke-opacity="0.94" stroke-linecap="round" stroke-linejoin="round"/>
<path d="M2.49609 5.83301H14.4961" stroke="#ADADAD" stroke-opacity="0.94" stroke-linecap="round" stroke-linejoin="round"/>
</svg>
