<svg width="59" height="56" viewBox="0 0 59 56" fill="none" xmlns="http://www.w3.org/2000/svg">
<path d="M4.87891 30.8958C4.87891 36.4212 7.07384 41.7202 10.9808 45.6272C14.8879 49.5342 20.1869 51.7292 25.7122 51.7292C31.2376 51.7292 36.5366 49.5342 40.4436 45.6272C44.3506 41.7202 46.5456 36.4212 46.5456 30.8958C46.5456 25.3705 44.3506 20.0714 40.4436 16.1644C36.5366 12.2574 31.2376 10.0625 25.7122 10.0625C20.1869 10.0625 14.8879 12.2574 10.9808 16.1644C7.07384 20.0714 4.87891 25.3705 4.87891 30.8958Z" stroke="#E09D00" stroke-width="2" stroke-linecap="round" stroke-linejoin="round"/>
<circle cx="43.5" cy="15.5" r="15" fill="#FFC849"/>
<path d="M43.5 11.5V19.5M47.5 15.5H39.5" stroke="#E09D00" stroke-width="2" stroke-linecap="round" stroke-linejoin="round"/>
<circle cx="43.5" cy="15.5" r="10" stroke="#E09D00" stroke-width="2"/>
<path d="M30.9206 39.2085C29.3789 40.2386 27.5664 40.7884 25.7122 40.7884C23.8581 40.7884 22.0456 40.2386 20.5039 39.2085" stroke="#E09D00" stroke-width="2" stroke-linecap="round"/>
<path d="M11.1289 32.1979C11.1289 31.7144 11.321 31.2508 11.6628 30.9089C12.0047 30.5671 12.4684 30.375 12.9518 30.375C13.4353 30.375 13.899 30.5671 14.2408 30.9089C14.5827 31.2508 14.7747 31.7144 14.7747 32.1979" stroke="#E09D00" stroke-width="2" stroke-linecap="round" stroke-linejoin="round"/>
<path d="M36.6484 32.1979C36.6484 31.7144 36.8405 31.2508 37.1824 30.9089C37.5242 30.5671 37.9879 30.375 38.4714 30.375C38.9548 30.375 39.4185 30.5671 39.7604 30.9089C40.1022 31.2508 40.2943 31.7144 40.2943 32.1979" stroke="#E09D00" stroke-width="2" stroke-linecap="round" stroke-linejoin="round"/>
</svg>
