<svg width="36" height="36" viewBox="0 0 36 36" fill="none" xmlns="http://www.w3.org/2000/svg">
<rect width="36" height="36" rx="18" fill="#FFF9EB" fill-opacity="0.95"/>
<path d="M18.0003 19.3333V18M18.0003 19.3333V20.6667M18.0003 19.3333C15.3337 19.3333 12.667 18.6667 12.7078 17.3333M18.0003 19.3333C20.667 19.3333 23.3337 18.6667 23.2928 17.3333M12.7078 17.3333C12.6817 17.7554 12.667 18.2046 12.667 18.6667C12.667 20.7407 12.9633 22.5556 13.2596 22.8148C13.5559 23.0741 15.63 23.3333 18.0003 23.3333C20.3707 23.3333 22.4448 23.0741 22.7411 22.8148C23.0374 22.5556 23.3337 20.7407 23.3337 18.6667C23.3337 18.2046 23.319 17.7554 23.2928 17.3333M12.7078 17.3333C12.799 15.8611 13.0293 14.72 13.2596 14.5185C13.5559 14.2593 16.0003 14.0621 16.0003 14.0621M23.2928 17.3333C23.2016 15.8611 22.9713 14.72 22.7411 14.5185C22.4448 14.2593 20.0003 14.0621 20.0003 14.0621M16.0003 14.0621C16.6146 14.023 17.2943 14 18.0003 14C18.7063 14 19.386 14.023 20.0003 14.0621M16.0003 14.0621V13.3333C16.0003 12.15 17.0919 12 18.0003 12C18.9088 12 20.0003 12.15 20.0003 13.3333V14.0621" stroke="#E09D00" stroke-width="1.5" stroke-linecap="round" stroke-linejoin="round"/>
</svg>
