<svg width="128" height="30" viewBox="0 0 128 30" fill="none" xmlns="http://www.w3.org/2000/svg">
<mask id="mask0_2304_19043" style="mask-type:luminance" maskUnits="userSpaceOnUse" x="0" y="0" width="128" height="30">
<path d="M127.879 0.618164H0V29.3822H127.879V0.618164Z" fill="white"/>
</mask>
<g mask="url(#mask0_2304_19043)">
<path d="M124.608 21.2042C124.445 21.5296 124.282 21.8253 124.119 22.0915C123.572 22.9345 122.935 23.5556 122.195 23.9549C121.455 24.3542 120.523 24.5465 119.398 24.5465H116.852C115.861 24.5465 115.239 24.5021 114.973 24.4134C114.617 24.2655 114.366 24.0437 114.247 23.7479C114.129 23.4521 114.055 22.7718 114.055 21.6923V7.98311C114.055 6.93312 114.114 6.28241 114.233 6.031C114.381 5.67607 114.603 5.42467 114.869 5.29157C115.239 5.06974 115.727 4.96622 116.349 4.96622H117.267V4.04932H106.344V4.96622H106.743C107.335 4.96622 107.794 5.06974 108.149 5.26199C108.49 5.46903 108.727 5.70565 108.845 5.97185C108.963 6.23805 109.023 6.91833 109.023 7.98311V22.1063C109.023 23.1563 108.963 23.807 108.845 24.0584C108.697 24.4134 108.49 24.6648 108.223 24.7979C107.853 25.0197 107.365 25.1232 106.743 25.1232H106.344V26.0549H124.726L125.23 21.1894H124.608V21.2042Z" fill="#0E0E0E" fill-opacity="0.98"/>
</g>
<mask id="mask1_2304_19043" style="mask-type:luminance" maskUnits="userSpaceOnUse" x="0" y="0" width="128" height="30">
<path d="M127.879 0.618164H0V29.3822H127.879V0.618164Z" fill="white"/>
</mask>
<g mask="url(#mask1_2304_19043)">
<path d="M104.212 21.2042C104.05 21.5296 103.887 21.8253 103.724 22.0915C103.176 22.9345 102.54 23.5556 101.8 23.9549C101.06 24.3542 100.127 24.5465 99.0025 24.5465H96.4568C95.4651 24.5465 94.8435 24.5021 94.5771 24.4134C94.2219 24.2655 93.9703 24.0437 93.8519 23.7479C93.7334 23.4521 93.6594 22.7718 93.6594 21.6923V7.98311C93.6594 6.93312 93.7186 6.28241 93.8371 6.031C93.9851 5.67607 94.2071 5.42467 94.4735 5.29157C94.8435 5.06974 95.3319 4.96622 95.9536 4.96622H96.8712V4.04932H85.9482V4.96622H86.3479C86.9399 4.96622 87.3987 5.06974 87.7539 5.26199C88.0944 5.46903 88.3312 5.70565 88.4496 5.97185C88.568 6.23805 88.6272 6.91833 88.6272 7.98311V22.1063C88.6272 23.1563 88.568 23.807 88.4496 24.0584C88.3016 24.4134 88.0944 24.6648 87.8279 24.7979C87.4579 25.0197 86.9695 25.1232 86.3479 25.1232H85.9482V26.0549H104.331L104.834 21.1894H104.212V21.2042Z" fill="#0E0E0E" fill-opacity="0.98"/>
</g>
<mask id="mask2_2304_19043" style="mask-type:luminance" maskUnits="userSpaceOnUse" x="0" y="0" width="128" height="30">
<path d="M127.879 0.618164H0V29.3822H127.879V0.618164Z" fill="white"/>
</mask>
<g mask="url(#mask2_2304_19043)">
<path d="M58.9964 4.04911V4.96601C59.8104 4.9808 60.3728 5.1139 60.654 5.3653C60.9501 5.60192 61.0833 5.94206 61.0833 6.37094C61.0833 6.66671 61.0389 6.97727 60.9649 7.31741C60.8761 7.65755 60.654 8.29347 60.2988 9.22516L56.8651 18.2167L53.0316 8.26389C52.5728 7.05122 52.336 6.31178 52.336 6.07516C52.336 5.85333 52.3952 5.66108 52.5284 5.4984C52.6468 5.32094 52.8244 5.20263 53.0464 5.12868C53.3573 5.02516 53.8753 4.96601 54.5857 4.95122V4.03432H44.388V4.95122C45.0392 4.95122 45.5277 5.03995 45.8681 5.21742C46.2085 5.39488 46.5045 5.69066 46.7561 6.08995C47.0077 6.50404 47.3778 7.31741 47.8514 8.53009L48.7246 10.7632L45.4241 18.7343L41.2946 8.53009C40.7914 7.25826 40.5398 6.43009 40.5398 6.0308C40.5398 5.73502 40.6582 5.48361 40.9098 5.27657C41.1466 5.06953 41.6351 4.96601 42.3751 4.93643V4.01953H33.2578V4.93643C33.9238 4.99559 34.3975 5.21742 34.6639 5.57235C34.9451 5.92728 35.4335 6.97727 36.144 8.70755L42.9967 26.0547H43.7072L49.3759 12.316L54.5265 26.0547H55.2518L61.7789 8.5153C62.3709 7.03643 62.6966 6.23784 62.7558 6.11953C62.963 5.73502 63.1998 5.45404 63.4662 5.26178C63.7326 5.06953 64.073 4.96601 64.4578 4.93643V4.01953H58.9964V4.04911Z" fill="#0E0E0E" fill-opacity="0.98"/>
</g>
<mask id="mask3_2304_19043" style="mask-type:luminance" maskUnits="userSpaceOnUse" x="0" y="0" width="128" height="30">
<path d="M127.879 0.618164H0V29.3822H127.879V0.618164Z" fill="white"/>
</mask>
<g mask="url(#mask3_2304_19043)">
<path d="M84.0976 21.2042C83.9348 21.5296 83.772 21.8253 83.6092 22.0915C83.0615 22.9345 82.4251 23.5556 81.6851 23.9549C80.945 24.3542 80.0126 24.5465 78.8877 24.5465H76.342C75.3503 24.5465 74.7287 24.5021 74.4623 24.4134C74.1071 24.2655 73.8555 24.0437 73.7371 23.7479C73.6186 23.4521 73.5446 23.1268 73.5446 22.0472V16.043C74.5511 16.043 75.3059 16.1761 75.8388 16.4423C76.3716 16.7085 76.8304 17.2261 77.23 17.9803C77.6297 18.7493 77.8961 19.7254 78.0145 20.9232H78.6065V9.92044H78.0145C77.8517 11.5472 77.4668 12.7894 76.86 13.6176C76.2532 14.4606 75.2911 14.8747 73.9591 14.8747H73.5594V5.60213H75.7352C77.3336 5.60213 78.4141 5.69086 78.9913 5.88312C79.983 6.19368 80.7526 6.68171 81.3002 7.3472C81.8479 8.01269 82.2623 9.09227 82.5583 10.6155H83.1503V4.04932H65.9814V4.96622H66.2331C66.9139 4.96622 67.4467 5.1141 67.8463 5.39509C68.1276 5.58734 68.32 5.86833 68.4236 6.23805C68.468 6.45988 68.4976 7.76128 68.4976 8.70776V21.6627V22.1211C68.4976 23.1711 68.4384 23.8218 68.3348 24.0732C68.1868 24.4282 67.9796 24.6796 67.7131 24.8127C67.3431 25.0345 66.8547 25.138 66.2331 25.138H65.9814V26.0697H84.216L84.7192 21.2042H84.0976Z" fill="#0E0E0E" fill-opacity="0.98"/>
</g>
<mask id="mask4_2304_19043" style="mask-type:luminance" maskUnits="userSpaceOnUse" x="0" y="0" width="128" height="30">
<path d="M127.879 0.618164H0V29.3822H127.879V0.618164Z" fill="white"/>
</mask>
<g mask="url(#mask4_2304_19043)">
<path d="M31.7923 4.93629H31.8959V4.03418H28.2697C27.7221 4.03418 27.2189 4.37432 26.9821 4.86235L23.5483 11.9905C23.0006 13.1292 22.7194 14.3715 22.7194 15.6285V20.006C22.7194 23.4074 22.7194 25.1968 19.5817 25.1968H19.5225V26.0694H31.8959V25.1968H31.8367C28.6989 25.1968 28.6989 23.3926 28.6989 20.006V10.1419C28.6989 6.63699 28.6989 4.95108 31.7923 4.93629Z" fill="#0E0E0E" fill-opacity="0.98"/>
</g>
<mask id="mask5_2304_19043" style="mask-type:luminance" maskUnits="userSpaceOnUse" x="0" y="0" width="128" height="30">
<path d="M127.879 0.618164H0V29.3822H127.879V0.618164Z" fill="white"/>
</mask>
<g mask="url(#mask5_2304_19043)">
<path d="M22.7048 9.6391L24.9545 4.96587C25.1617 4.55178 24.8509 4.03418 24.3921 4.03418H19.5078V4.93629H19.6114C22.468 4.95108 22.69 6.65178 22.7048 9.6391Z" fill="#0E0E0E" fill-opacity="0.98"/>
</g>
<mask id="mask6_2304_19043" style="mask-type:luminance" maskUnits="userSpaceOnUse" x="0" y="0" width="128" height="30">
<path d="M127.879 0.618164H0V29.3822H127.879V0.618164Z" fill="white"/>
</mask>
<g mask="url(#mask6_2304_19043)">
<path d="M17.6577 20.1099C17.9241 19.5627 17.9241 18.9416 17.6725 18.3944L13.9279 10.4085C12.507 7.37678 11.9594 4.96622 15.26 4.95143H15.2896V4.04932H2.62012V4.90706V4.93664H2.64972C4.94384 4.95143 5.81708 6.66692 7.63758 10.4528L14.816 25.9662L17.6577 20.1099Z" fill="#0E0E0E" fill-opacity="0.98"/>
</g>
</svg>
