<svg width="128" height="30" viewBox="0 0 128 30" fill="none" xmlns="http://www.w3.org/2000/svg">
<mask id="mask0_2127_19378" style="mask-type:luminance" maskUnits="userSpaceOnUse" x="0" y="0" width="128" height="30">
<path d="M127.879 0.618164H0V29.3822H127.879V0.618164Z" fill="white"/>
</mask>
<g mask="url(#mask0_2127_19378)">
<path d="M124.607 21.2037C124.445 21.5291 124.282 21.8249 124.119 22.0911C123.571 22.934 122.935 23.5551 122.195 23.9544C121.455 24.3537 120.522 24.546 119.398 24.546H116.852C115.86 24.546 115.239 24.5016 114.972 24.4129C114.617 24.265 114.365 24.0432 114.247 23.7474C114.128 23.4516 114.054 22.7713 114.054 21.6918V7.98263C114.054 6.93263 114.114 6.28192 114.232 6.03052C114.38 5.67559 114.602 5.42418 114.869 5.29108C115.239 5.06925 115.727 4.96573 116.349 4.96573H117.266V4.04883H106.343V4.96573H106.743C107.335 4.96573 107.794 5.06925 108.149 5.2615C108.489 5.46854 108.726 5.70516 108.845 5.97136C108.963 6.23756 109.022 6.91784 109.022 7.98263V22.1058C109.022 23.1558 108.963 23.8065 108.845 24.058C108.697 24.4129 108.489 24.6643 108.223 24.7974C107.853 25.0192 107.365 25.1227 106.743 25.1227H106.343V26.0544H124.726L125.229 21.1889H124.607V21.2037Z" fill="white"/>
</g>
<mask id="mask1_2127_19378" style="mask-type:luminance" maskUnits="userSpaceOnUse" x="0" y="0" width="128" height="30">
<path d="M127.879 0.618164H0V29.3822H127.879V0.618164Z" fill="white"/>
</mask>
<g mask="url(#mask1_2127_19378)">
<path d="M104.212 21.2037C104.05 21.5291 103.887 21.8249 103.724 22.0911C103.176 22.934 102.54 23.5551 101.8 23.9544C101.06 24.3537 100.127 24.546 99.0025 24.546H96.4568C95.4651 24.546 94.8435 24.5016 94.5771 24.4129C94.2219 24.265 93.9703 24.0432 93.8519 23.7474C93.7334 23.4516 93.6594 22.7713 93.6594 21.6918V7.98263C93.6594 6.93263 93.7186 6.28192 93.8371 6.03052C93.9851 5.67559 94.2071 5.42418 94.4735 5.29108C94.8435 5.06925 95.3319 4.96573 95.9536 4.96573H96.8712V4.04883H85.9482V4.96573H86.3479C86.9399 4.96573 87.3987 5.06925 87.7539 5.2615C88.0944 5.46854 88.3312 5.70516 88.4496 5.97136C88.568 6.23756 88.6272 6.91784 88.6272 7.98263V22.1058C88.6272 23.1558 88.568 23.8065 88.4496 24.058C88.3016 24.4129 88.0944 24.6643 87.8279 24.7974C87.4579 25.0192 86.9695 25.1227 86.3479 25.1227H85.9482V26.0544H104.331L104.834 21.1889H104.212V21.2037Z" fill="white"/>
</g>
<mask id="mask2_2127_19378" style="mask-type:luminance" maskUnits="userSpaceOnUse" x="0" y="0" width="128" height="30">
<path d="M127.879 0.618164H0V29.3822H127.879V0.618164Z" fill="white"/>
</mask>
<g mask="url(#mask2_2127_19378)">
<path d="M58.9959 4.04911V4.96601C59.8099 4.9808 60.3723 5.1139 60.6536 5.3653C60.9496 5.60192 61.0828 5.94206 61.0828 6.37094C61.0828 6.66671 61.0384 6.97727 60.9644 7.31741C60.8756 7.65755 60.6536 8.29347 60.2983 9.22516L56.8646 18.2167L53.0312 8.26389C52.5723 7.05122 52.3355 6.31178 52.3355 6.07516C52.3355 5.85333 52.3947 5.66108 52.5279 5.4984C52.6463 5.32094 52.8239 5.20263 53.046 5.12868C53.3568 5.02516 53.8748 4.96601 54.5852 4.95122V4.03432H44.3875V4.95122C45.0387 4.95122 45.5272 5.03995 45.8676 5.21742C46.208 5.39488 46.504 5.69066 46.7556 6.08995C47.0072 6.50404 47.3773 7.31741 47.8509 8.53009L48.7241 10.7632L45.4236 18.7343L41.2941 8.53009C40.7909 7.25826 40.5393 6.43009 40.5393 6.0308C40.5393 5.73502 40.6577 5.48361 40.9093 5.27657C41.1461 5.06953 41.6346 4.96601 42.3746 4.93643V4.01953H33.2573V4.93643C33.9234 4.99559 34.397 5.21742 34.6634 5.57235C34.9446 5.92728 35.433 6.97727 36.1435 8.70755L42.9962 26.0547H43.7067L49.3754 12.316L54.526 26.0547H55.2513L61.7784 8.5153C62.3705 7.03643 62.6961 6.23784 62.7553 6.11953C62.9625 5.73502 63.1993 5.45404 63.4657 5.26178C63.7321 5.06953 64.0725 4.96601 64.4574 4.93643V4.01953H58.9959V4.04911Z" fill="white"/>
</g>
<mask id="mask3_2127_19378" style="mask-type:luminance" maskUnits="userSpaceOnUse" x="0" y="0" width="128" height="30">
<path d="M127.879 0.618164H0V29.3822H127.879V0.618164Z" fill="white"/>
</mask>
<g mask="url(#mask3_2127_19378)">
<path d="M84.0981 21.2037C83.9353 21.5291 83.7725 21.8249 83.6097 22.0911C83.062 22.934 82.4256 23.5551 81.6856 23.9544C80.9455 24.3537 80.0131 24.546 78.8882 24.546H76.3425C75.3508 24.546 74.7292 24.5016 74.4628 24.4129C74.1076 24.265 73.8559 24.0432 73.7375 23.7474C73.6191 23.4516 73.5451 23.1263 73.5451 22.0467V16.0425C74.5516 16.0425 75.3064 16.1756 75.8393 16.4418C76.3721 16.708 76.8309 17.2256 77.2305 17.9798C77.6301 18.7488 77.8966 19.7249 78.015 20.9228H78.607V9.91995H78.015C77.8522 11.5467 77.4673 12.789 76.8605 13.6171C76.2537 14.4601 75.2916 14.8742 73.9596 14.8742H73.5599V5.60164H75.7356C77.3341 5.60164 78.4146 5.69037 78.9918 5.88263C79.9835 6.19319 80.7531 6.68122 81.3007 7.34671C81.8484 8.0122 82.2628 9.09178 82.5588 10.615H83.1508V4.04883H65.9819V4.96573H66.2335C66.9144 4.96573 67.4472 5.11362 67.8468 5.3946C68.128 5.58685 68.3205 5.86784 68.4241 6.23756C68.4685 6.45939 68.4981 7.76079 68.4981 8.70727V21.6622V22.1206C68.4981 23.1706 68.4389 23.8213 68.3353 24.0727C68.1873 24.4277 67.98 24.6791 67.7136 24.8122C67.3436 25.034 66.8552 25.1375 66.2335 25.1375H65.9819V26.0692H84.2165L84.7197 21.2037H84.0981Z" fill="white"/>
</g>
<mask id="mask4_2127_19378" style="mask-type:luminance" maskUnits="userSpaceOnUse" x="0" y="0" width="128" height="30">
<path d="M127.879 0.618164H0V29.3822H127.879V0.618164Z" fill="white"/>
</mask>
<g mask="url(#mask4_2127_19378)">
<path d="M31.7921 4.93629H31.8957V4.03418H28.2695C27.7218 4.03418 27.2186 4.37432 26.9818 4.86235L23.548 11.9905C23.0004 13.1292 22.7192 14.3715 22.7192 15.6285V20.006C22.7192 23.4074 22.7192 25.1968 19.5814 25.1968H19.5222V26.0694H31.8957V25.1968H31.8365C28.6987 25.1968 28.6987 23.3926 28.6987 20.006V10.1419C28.6987 6.63699 28.6987 4.95108 31.7921 4.93629Z" fill="white"/>
</g>
<mask id="mask5_2127_19378" style="mask-type:luminance" maskUnits="userSpaceOnUse" x="0" y="0" width="128" height="30">
<path d="M127.879 0.618164H0V29.3822H127.879V0.618164Z" fill="white"/>
</mask>
<g mask="url(#mask5_2127_19378)">
<path d="M22.7043 9.6391L24.954 4.96587C25.1612 4.55178 24.8504 4.03418 24.3916 4.03418H19.5073V4.93629H19.6109C22.4675 4.95108 22.6895 6.65178 22.7043 9.6391Z" fill="white"/>
</g>
<mask id="mask6_2127_19378" style="mask-type:luminance" maskUnits="userSpaceOnUse" x="0" y="0" width="128" height="30">
<path d="M127.879 0.618164H0V29.3822H127.879V0.618164Z" fill="white"/>
</mask>
<g mask="url(#mask6_2127_19378)">
<path d="M17.6572 20.1094C17.9236 19.5622 17.9236 18.9411 17.672 18.3939L13.9274 10.408C12.5065 7.37629 11.9589 4.96573 15.2595 4.95094H15.2891V4.04883H2.61963V4.90657V4.93615H2.64923C4.94335 4.95094 5.8166 6.66643 7.63709 10.4523L14.8155 25.9657L17.6572 20.1094Z" fill="white"/>
</g>
</svg>
